<?xml version="1.0" encoding="UTF-8"?>
<svg width="267px" height="156px" viewBox="0 0 267 156" version="1.1" xmlns="http://www.w3.org/2000/svg" xmlns:xlink="http://www.w3.org/1999/xlink">
    <title>Wu_LogoOK Copy</title>
    <g id="Coming-Soon" stroke="none" stroke-width="1" fill="none" fill-rule="evenodd">
        <g id="Desktop-HD-Copy" transform="translate(-587.000000, -346.000000)">
            <g id="Group" transform="translate(473.000000, 346.000000)">
                <g id="Wu_LogoOK-Copy" transform="translate(114.000000, 0.000000)">
                    <path d="M14.9477341,155.5 L17,155.5 L8.48479144,137.5 L0,155.5 L2.02146181,155.5 L4.0433106,151.182511 L12.9258853,151.182511 L14.9477341,155.5 Z M4.8700295,149.432169 L8.48479144,141.788593 L12.0989729,149.432169 L4.8700295,149.432169 Z" id="Fill-1" fill="#FFFFFF"></path>
                    <path d="M40,155.5 L35.5803154,147.798041 L35.551999,147.739732 C35.437283,147.535834 35.2646651,147.302155 35.1214514,147.098295 L35.1788094,147.098295 C37.5321192,146.806233 39.3685181,144.764383 39.3685181,142.313817 C39.3685181,139.658947 37.2447853,137.5 34.6046855,137.5 L27,137.5 L27,155.5 L28.7218279,155.5 L28.7218279,147.127228 L31.505359,147.127228 C32.5673885,147.127228 33.5145208,147.710798 34.0307428,148.58595 L38.0198435,155.5 L40,155.5 Z M34.6046855,145.376924 L28.7218279,145.376924 L28.7218279,139.250341 L34.6622248,139.250341 C36.2981969,139.250341 37.6468352,140.621784 37.6468352,142.313817 C37.6468352,144.005849 36.2981969,145.376924 34.6046855,145.376924 Z" id="Fill-2" fill="#FFFFFF"></path>
                    <path d="M63.7485173,151.620124 C62.5839283,152.932815 60.9833998,153.749695 59.2077968,153.749695 C55.6276509,153.749695 52.7463687,150.482286 52.7463687,146.485312 C52.7463687,142.488744 55.6276509,139.250341 59.2077968,139.250341 C60.9833998,139.250341 62.5839283,140.067185 63.7772367,141.380355 L65,140.125936 C64.2431826,139.338026 63.3989199,138.667177 62.4386764,138.200225 C61.4198908,137.733679 60.3140277,137.5 59.2077968,137.5 C58.0726259,137.5 56.9956661,137.733679 55.9772483,138.200225 C54.9877337,138.667177 54.1142,139.338026 53.3573826,140.154869 C51.8442627,141.846902 51,144.093092 51,146.485312 C51,148.87757 51.8442627,151.124202 53.3573826,152.816197 C54.1142,153.661974 54.9877337,154.303927 55.9772483,154.770842 C56.9956661,155.237388 58.0726259,155.5 59.2077968,155.5 C60.3140277,155.5 61.4198908,155.237388 62.4386764,154.770842 C63.3700167,154.303927 64.2431826,153.661974 65,152.845131 L63.7485173,151.620124 Z" id="Fill-3" fill="#FFFFFF"></path>
                    <polygon id="Fill-4" fill="#FFFFFF" points="89 137.5 87.2468692 137.5 87.2468692 144.734971 77.7527617 144.734971 77.7527617 137.5 76 137.5 76 155.5 77.7527617 155.5 77.7527617 146.485312 87.2468692 146.485312 87.2468692 155.5 89 155.5"></polygon>
                    <polygon id="Fill-5" fill="#FFFFFF" points="102 137.5 100 137.5 100 155.5 102 155.5"></polygon>
                    <polygon id="Fill-6" fill="#FFFFFF" points="113 137.5 113 139.250341 118.6383 139.250341 118.6383 155.5 120.391079 155.5 120.391079 139.250341 126 139.250341 126 137.5"></polygon>
                    <polygon id="Fill-7" fill="#FFFFFF" points="147 137.5 135 137.5 135 155.5 147 155.5 147 153.749695 136.768901 153.749695 136.768901 146.485312 146.233337 146.485312 146.233337 144.734971 136.768901 144.734971 136.768901 139.250341 147 139.250341"></polygon>
                    <path d="M170.748481,151.620124 C169.583891,152.932815 167.983363,153.749695 166.20776,153.749695 C162.627614,153.749695 159.746332,150.482286 159.746332,146.485312 C159.746332,142.488744 162.627614,139.250341 166.20776,139.250341 C167.983363,139.250341 169.583891,140.067185 170.777237,141.380355 L172,140.125936 C171.243146,139.338026 170.39892,138.667177 169.43864,138.200225 C168.419854,137.733679 167.313991,137.5 166.20776,137.5 C165.072626,137.5 163.995666,137.733679 162.977211,138.200225 C161.987697,138.667177 161.114163,139.338026 160.357346,140.154869 C158.844263,141.846902 158,144.093092 158,146.485312 C158,148.87757 158.844263,151.124202 160.357346,152.816197 C161.114163,153.661974 161.987697,154.303927 162.977211,154.770842 C163.995666,155.237388 165.072626,155.5 166.20776,155.5 C167.313991,155.5 168.419854,155.237388 169.43864,154.770842 C170.36998,154.303927 171.243146,153.661974 172,152.845131 L170.748481,151.620124 Z" id="Fill-8" fill="#FFFFFF"></path>
                    <polygon id="Fill-9" fill="#FFFFFF" points="183 137.5 183 139.250341 188.638216 139.250341 188.638216 155.5 190.390978 155.5 190.390978 139.250341 196 139.250341 196 137.5"></polygon>
                    <path d="M218.246717,137.5 L218.246717,149.490478 C218.246717,151.795051 216.143766,153.661974 213.514616,153.661974 C210.85605,153.661974 208.752582,151.795051 208.752582,149.490478 L208.752582,137.5 L207,137.5 L207,149.490478 C207,150.336255 207.204545,151.124202 207.525867,151.882736 C207.876383,152.611894 208.372871,153.253773 208.98669,153.808004 C210.213406,154.91643 211.790859,155.5 213.514616,155.5 C215.208994,155.5 216.81542,154.91643 218.042689,153.808004 C218.655954,153.253773 219.123617,152.611894 219.473985,151.882736 C219.824317,151.124202 220,150.336255 220,149.490478 L220,137.5 L218.246717,137.5 Z" id="Fill-10" fill="#FFFFFF"></path>
                    <path d="M244,155.5 L239.580352,147.798041 L239.551854,147.739732 C239.437102,147.535834 239.264701,147.302155 239.121451,147.098295 L239.178809,147.098295 C241.531974,146.806233 243.368518,144.764383 243.368518,142.313817 C243.368518,139.658947 241.244822,137.5 238.604685,137.5 L231,137.5 L231,155.5 L232.721683,155.5 L232.721683,147.127228 L235.505359,147.127228 C236.567207,147.127228 237.51434,147.710798 238.030598,148.58595 L242.01988,155.5 L244,155.5 Z M238.604685,145.376924 L232.721683,145.376924 L232.721683,139.250341 L238.66208,139.250341 C240.298052,139.250341 241.64669,140.621784 241.64669,142.313817 C241.64669,144.005849 240.298052,145.376924 238.604685,145.376924 Z" id="Fill-11" fill="#FFFFFF"></path>
                    <polygon id="Fill-12" fill="#FFFFFF" points="267 137.5 255 137.5 255 155.5 267 155.5 267 153.749695 256.768864 153.749695 256.768864 146.485312 266.233486 146.485312 266.233486 144.734971 256.768864 144.734971 256.768864 139.250341 267 139.250341"></polygon>
                    <path d="M267,73.6462091 C267,79.142907 265.930968,84.3342952 263.788183,89.2228801 C261.748081,94.0065651 258.893483,98.2309956 255.221839,101.896284 C251.653066,105.458992 247.421311,108.311044 242.526611,110.447688 C237.732345,112.481715 232.58311,113.5 227.074633,113.5 C221.568404,113.5 216.367902,112.481715 211.473389,110.447688 C206.578651,108.311044 202.295479,105.458992 198.623873,101.896284 C195.055063,98.2309956 192.198104,94.0065651 190.057717,89.2228801 C188.017578,84.3342952 187,79.142907 187,73.6462091 L187,0.5 L195.104119,0.5 L195.104119,73.6462091 C195.104119,78.0244356 195.920976,82.1463978 197.552481,86.0143406 C199.286818,89.8846402 201.581305,93.2935896 204.435904,96.2457527 C207.290465,99.0977671 210.656344,101.388245 214.531069,103.117224 C218.408041,104.745904 222.588343,105.561423 227.074633,105.561423 C231.460488,105.561423 235.591959,104.745904 239.466496,103.117224 C243.341257,101.388245 246.707099,99.0977671 249.56151,96.2457527 C252.518942,93.2935896 254.813429,89.8846402 256.444933,86.0143406 C258.179271,82.1463978 259.045184,78.0244356 259.045184,73.6462091 L259.045184,0.5 L267,0.5 L267,73.6462091 Z" id="Fill-13" fill="#FFFFFF"></path>
                    <path d="M267,73.6462091 C267,79.142907 265.930968,84.3342952 263.788183,89.2228801 C261.748081,94.0065651 258.893483,98.2309956 255.221839,101.896284 C251.653066,105.458992 247.421311,108.311044 242.526611,110.447688 C237.732345,112.481715 232.58311,113.5 227.074633,113.5 C221.568404,113.5 216.367902,112.481715 211.473389,110.447688 C206.578651,108.311044 202.295479,105.458992 198.623873,101.896284 C195.055063,98.2309956 192.198104,94.0065651 190.057717,89.2228801 C188.017578,84.3342952 187,79.142907 187,73.6462091 L187,0.5 L195.104119,0.5 L195.104119,73.6462091 C195.104119,78.0244356 195.920976,82.1463978 197.552481,86.0143406 C199.286818,89.8846402 201.581305,93.2935896 204.435904,96.2457527 C207.290465,99.0977671 210.656344,101.388245 214.531069,103.117224 C218.408041,104.745904 222.588343,105.561423 227.074633,105.561423 C231.460488,105.561423 235.591959,104.745904 239.466496,103.117224 C243.341257,101.388245 246.707099,99.0977671 249.56151,96.2457527 C252.518942,93.2935896 254.813429,89.8846402 256.444933,86.0143406 C258.179271,82.1463978 259.045184,78.0244356 259.045184,73.6462091 L259.045184,0.5 L267,0.5 L267,73.6462091 Z" id="Stroke-14"></path>
                    <path d="M155,73.9938839 C155,79.4426619 153.931006,84.5887197 151.788221,89.4346162 C149.748119,94.176565 146.89352,98.3641387 143.221877,101.997486 C139.653104,105.529036 135.421349,108.356204 130.526611,110.474244 C125.732383,112.490673 120.58311,113.5 115.07467,113.5 C109.568404,113.5 104.36794,112.490673 99.4733892,110.474244 C94.5786889,108.356204 90.2955169,105.529036 86.6238733,101.997486 C83.0551005,98.3641387 80.1981035,94.176565 78.0577168,89.4346162 C76.017615,84.5887197 75,79.4426619 75,73.9938839 L75,0.5 L83.1039688,0.5 L83.1039688,73.9938839 C83.1039688,78.3338746 83.9209764,82.419874 85.5524807,86.2540702 C87.2868558,90.0906398 89.5813052,93.4698842 92.4359037,96.3962906 C95.2905022,99.2233849 98.6563816,101.493916 102.531106,103.207773 C106.408041,104.822281 110.588567,105.630684 115.07467,105.630684 C119.460488,105.630684 123.591959,104.822281 127.466533,103.207773 C131.341295,101.493916 134.707137,99.2233849 137.561548,96.3962906 C140.51898,93.4698842 142.813467,90.0906398 144.445158,86.2540702 C146.179309,82.419874 147.045222,78.3338746 147.045222,73.9938839 L147.045222,0.5 L155,0.5 L155,73.9938839 Z" id="Fill-15" fill="#FFFFFF"></path>
                    <path d="M155,73.9938839 C155,79.4426619 153.931006,84.5887197 151.788221,89.4346162 C149.748119,94.176565 146.89352,98.3641387 143.221877,101.997486 C139.653104,105.529036 135.421349,108.356204 130.526611,110.474244 C125.732383,112.490673 120.58311,113.5 115.07467,113.5 C109.568404,113.5 104.36794,112.490673 99.4733892,110.474244 C94.5786889,108.356204 90.2955169,105.529036 86.6238733,101.997486 C83.0551005,98.3641387 80.1981035,94.176565 78.0577168,89.4346162 C76.017615,84.5887197 75,79.4426619 75,73.9938839 L75,0.5 L83.1039688,0.5 L83.1039688,73.9938839 C83.1039688,78.3338746 83.9209764,82.419874 85.5524807,86.2540702 C87.2868558,90.0906398 89.5813052,93.4698842 92.4359037,96.3962906 C95.2905022,99.2233849 98.6563816,101.493916 102.531106,103.207773 C106.408041,104.822281 110.588567,105.630684 115.07467,105.630684 C119.460488,105.630684 123.591959,104.822281 127.466533,103.207773 C131.341295,101.493916 134.707137,99.2233849 137.561548,96.3962906 C140.51898,93.4698842 142.813467,90.0906398 144.445158,86.2540702 C146.179309,82.419874 147.045222,78.3338746 147.045222,73.9938839 L147.045222,0.5 L155,0.5 L155,73.9938839 Z" id="Stroke-16"></path>
                    <path d="M84,73.9938839 C84,79.4426619 82.9309684,84.5887197 80.7881832,89.4346162 C78.7480814,94.176565 75.8934828,98.3641387 72.2218392,101.997486 C68.6530664,105.529036 64.4213111,108.356204 59.5266108,110.474244 C54.7323453,112.490673 49.5831101,113.5 44.0746328,113.5 C38.5684041,113.5 33.3679022,112.490673 28.4732018,110.474244 C23.5786514,108.356204 19.2954794,105.529036 15.6238733,101.997486 C12.055063,98.3641387 9.19810354,94.176565 7.05752941,89.4346162 C5.01757751,84.5887197 4,79.4426619 4,73.9938839 L4,0.5 L12.1041187,0.5 L12.1041187,73.9938839 C12.1041187,78.3338746 12.9209764,82.419874 14.5524807,86.2540702 C16.2868183,90.0906398 18.5813052,93.4698842 21.4359037,96.3962906 C24.2904647,99.2233849 27.6563441,101.493916 31.5310685,103.207773 C35.4080414,104.822281 39.5883426,105.630684 44.0746328,105.630684 C48.4604882,105.630684 52.5919586,104.822281 56.4664956,103.207773 C60.3412574,101.493916 63.7070993,99.2233849 66.5615105,96.3962906 C69.5189423,93.4698842 71.8134291,90.0906398 73.4451208,86.2540702 C75.1792711,82.419874 76.0453718,78.3338746 76.0453718,73.9938839 L76.0453718,0.5 L84,0.5 L84,73.9938839 Z" id="Fill-17" fill="#FFFFFF"></path>
                    <path d="M84,73.9938839 C84,79.4426619 82.9309684,84.5887197 80.7881832,89.4346162 C78.7480814,94.176565 75.8934828,98.3641387 72.2218392,101.997486 C68.6530664,105.529036 64.4213111,108.356204 59.5266108,110.474244 C54.7323453,112.490673 49.5831101,113.5 44.0746328,113.5 C38.5684041,113.5 33.3679022,112.490673 28.4732018,110.474244 C23.5786514,108.356204 19.2954794,105.529036 15.6238733,101.997486 C12.055063,98.3641387 9.19810354,94.176565 7.05752941,89.4346162 C5.01757751,84.5887197 4,79.4426619 4,73.9938839 L4,0.5 L12.1041187,0.5 L12.1041187,73.9938839 C12.1041187,78.3338746 12.9209764,82.419874 14.5524807,86.2540702 C16.2868183,90.0906398 18.5813052,93.4698842 21.4359037,96.3962906 C24.2904647,99.2233849 27.6563441,101.493916 31.5310685,103.207773 C35.4080414,104.822281 39.5883426,105.630684 44.0746328,105.630684 C48.4604882,105.630684 52.5919586,104.822281 56.4664956,103.207773 C60.3412574,101.493916 63.7070993,99.2233849 66.5615105,96.3962906 C69.5189423,93.4698842 71.8134291,90.0906398 73.4451208,86.2540702 C75.1792711,82.419874 76.0453718,78.3338746 76.0453718,73.9938839 L76.0453718,0.5 L84,0.5 L84,73.9938839 Z" id="Stroke-18"></path>
                </g>
            </g>
        </g>
    </g>
</svg>